<?xml version="1.0" encoding="UTF-8" standalone="no"?>
<!DOCTYPE svg PUBLIC "-//W3C//DTD SVG 1.1//EN" "http://www.w3.org/Graphics/SVG/1.1/DTD/svg11.dtd">
<svg width="100%" height="100%" viewBox="0 0 133 48" version="1.1" xmlns="http://www.w3.org/2000/svg" xmlns:xlink="http://www.w3.org/1999/xlink" xml:space="preserve" xmlns:serif="http://www.serif.com/" style="fill-rule:evenodd;clip-rule:evenodd;stroke-linejoin:round;stroke-miterlimit:2;">
    <g>
        <path d="M1.693,0.374L3.431,1.824L3.431,8.359L12.827,8.359L14.105,9.971L12.823,11.505L3.431,11.505L3.431,17.753L1.693,19.199L0,17.753L0,1.82L1.693,0.374ZM6.775,16.843L13.939,16.843L15.138,18.372L13.86,19.989L6.775,19.989L5.617,18.497L6.775,16.843ZM7.024,0L13.856,0L15.134,1.612L13.856,3.145L7.107,3.145L5.742,1.658L7.024,0ZM45.103,3.104L46.634,4.757L45.103,6.415L21.967,6.415L20.478,4.757L21.967,3.104L45.103,3.104ZM19.237,9.971L20.681,8.729L22.129,9.971L22.129,11.795C22.129,14.857 22.954,17.379 26.634,17.379L27.377,17.379C30.683,17.379 32.5,15.144 32.5,11.667L32.5,9.93L33.906,8.688L35.354,9.888L35.354,11.791C35.354,14.895 36.263,17.213 39.818,17.213L40.436,17.213C43.909,17.213 44.527,14.563 44.568,11.667L44.568,9.805L45.975,8.646L47.46,9.847L47.46,11.708C47.418,15.722 46.344,20.317 40.561,20.317L39.943,20.317C36.512,20.317 34.653,18.784 33.911,16.881C33.044,18.825 30.729,20.525 27.588,20.525L26.842,20.525C20.892,20.525 19.283,16.927 19.241,11.874L19.241,9.971L19.237,9.971ZM31.056,39.931L30.231,37.696L32.38,37.077L39.943,40.509L39.943,33.433L41.474,32.15L43.042,33.433L43.042,42.001L45.85,43.284L46.634,45.353L44.444,46.139L31.056,39.931ZM44.527,24.825L46.593,25.776L45.933,27.887L27.335,36.537L25.103,35.669L26.012,33.517L44.527,24.825ZM17.694,36.62L19.511,38.112C19.345,43.368 14.84,46.139 9.513,46.139L8.973,46.139C6.327,46.139 3.232,45.146 1.249,43.243L1.452,41.132L3.394,40.883C4.841,42.125 6.866,42.994 8.766,42.994L9.347,42.994C12.944,42.994 15.711,41.506 16.001,37.987L17.694,36.62ZM15.997,33.184C15.831,29.54 13.105,28.095 9.343,28.095L8.762,28.095C6.53,28.095 4.837,28.963 3.389,30.205L1.452,29.956L1.245,27.845C3.228,25.901 5.995,24.991 8.89,24.991L9.467,24.991C14.84,24.991 19.345,27.725 19.507,33.059L17.69,34.509L15.997,33.184Z" style="fill:rgb(34,5,61);fill-rule:nonzero;"/>
        <g transform="matrix(0.427844,0,0,0.412469,-1.91714,0.14947)">
            <path d="M156.07,14.48L145.89,14.48C146.12,16.46 147.5,17.92 149.53,17.92C150.76,17.92 151.91,17.43 152.57,16.43L155.81,16.52C154.66,19.07 152.28,20.42 149.53,20.42C145.69,20.42 142.85,17.55 142.85,13.6C142.85,9.64 145.63,6.8 149.45,6.8C152.92,6.8 156.07,9.12 156.07,14.46L156.07,14.48ZM145.89,12.39L152.86,12.39C152.72,10.73 151.37,9.29 149.48,9.29C147.55,9.29 146.23,10.55 145.89,12.39Z" style="fill:rgb(34,5,61);fill-rule:nonzero;"/>
        </g>
        <g transform="matrix(0.427844,0,0,0.412469,-1.91714,0.14947)">
            <path d="M166.02,10.64C165.04,9.69 163.61,9.24 162.64,9.24C161.52,9.24 160.95,9.84 160.95,10.44C160.95,11.16 161.27,11.5 162.15,11.82L164.39,12.59C166.8,13.42 167.8,14.74 167.8,16.35C167.8,18.42 166.22,20.42 162.98,20.42C160.86,20.42 158.76,19.56 157.53,18.38L159.22,16.17C160.2,17.14 161.71,17.86 162.92,17.86C164.07,17.86 164.81,17.37 164.81,16.6C164.81,15.77 164.41,15.43 162.97,14.94L160.82,14.19C159.01,13.56 158.01,12.21 158.01,10.61C158.01,8.72 159.64,6.8 162.74,6.8C164.26,6.8 166.3,7.4 167.64,8.66L166.02,10.64Z" style="fill:rgb(34,5,61);fill-rule:nonzero;"/>
        </g>
        <g transform="matrix(0.427844,0,0,0.412469,-1.91714,0.14947)">
            <path d="M176.48,17.92C177.97,17.92 179.12,17.2 179.78,16.03L182.25,17.29C181.22,19.21 178.95,20.42 176.49,20.42C172.65,20.42 169.64,17.58 169.64,13.62C169.64,9.63 172.65,6.79 176.49,6.79C178.96,6.79 181.22,7.99 182.25,9.92L179.78,11.18C179.12,10 177.97,9.29 176.48,9.29C174.13,9.29 172.52,11.15 172.52,13.62C172.52,16.09 174.13,17.92 176.48,17.92Z" style="fill:rgb(34,5,61);fill-rule:nonzero;"/>
        </g>
        <g transform="matrix(0.427844,0,0,0.412469,-1.91714,0.14947)">
            <path d="M184.59,15.37L184.59,7.14L187.46,7.14L187.46,15C187.46,17.04 188.81,17.95 190.5,17.95C192.19,17.95 193.54,17.03 193.54,15L193.54,7.14L196.38,7.14L196.38,15.37C196.38,18.09 194.23,20.42 190.5,20.42C186.77,20.42 184.59,18.09 184.59,15.37Z" style="fill:rgb(34,5,61);fill-rule:nonzero;"/>
        </g>
        <g transform="matrix(0.427844,0,0,0.412469,-1.91714,0.14947)">
            <path d="M212.15,14.48L201.97,14.48C202.2,16.46 203.58,17.92 205.61,17.92C206.84,17.92 207.99,17.43 208.65,16.43L211.89,16.52C210.74,19.07 208.36,20.42 205.61,20.42C201.77,20.42 198.93,17.55 198.93,13.6C198.93,9.64 201.71,6.8 205.53,6.8C209,6.8 212.15,9.12 212.15,14.46L212.15,14.48ZM201.97,12.39L208.94,12.39C208.8,10.73 207.45,9.29 205.56,9.29C203.63,9.29 202.31,10.55 201.97,12.39Z" style="fill:rgb(34,5,61);fill-rule:nonzero;"/>
        </g>
        <g transform="matrix(0.427844,0,0,0.412469,-1.91714,0.14947)">
            <rect x="214.81" y="0" width="2.84" height="20.07" style="fill:rgb(34,5,61);fill-rule:nonzero;"/>
        </g>
        <g transform="matrix(0.427844,0,0,0.412469,-1.91714,0.14947)">
            <path d="M228.69,11.38C228.69,10 227.66,9.29 225.99,9.29C224.59,9.29 223.32,9.89 222.35,10.67L221,8.55C222.09,7.6 223.92,6.8 226.19,6.8C229.6,6.8 231.55,8.69 231.55,11.45L231.55,20.08L228.68,20.08L228.68,18.73C227.93,19.93 226.33,20.42 224.98,20.42C222.03,20.42 220.31,18.73 220.31,16.35C220.31,13.83 222.09,12.39 224.98,12.39L227.76,12.39C228.42,12.39 228.68,12.1 228.68,11.59L228.68,11.38L228.69,11.38ZM228.69,15.34L228.69,14.22C228.43,14.42 227.97,14.51 227.31,14.51L225.59,14.51C224.07,14.51 223.3,15.17 223.3,16.26C223.3,17.26 224.05,18.18 225.59,18.18C227.2,18.18 228.69,17.35 228.69,15.34Z" style="fill:rgb(34,5,61);fill-rule:nonzero;"/>
        </g>
        <g transform="matrix(0.427844,0,0,0.412469,-1.91714,0.14947)">
            <path d="M146.55,50.38L143.71,50.38L143.71,30.31L146.55,30.31L146.55,39.37C147.24,38.08 149.04,37.1 150.94,37.1C154.7,37.1 157.42,39.94 157.42,43.9C157.42,47.86 154.64,50.72 150.88,50.72C149.02,50.72 147.27,49.8 146.55,48.51L146.55,50.38ZM146.46,43.9C146.46,46.37 148.09,48.26 150.47,48.26C152.82,48.26 154.48,46.37 154.48,43.9C154.48,41.43 152.82,39.57 150.47,39.57C148.09,39.57 146.46,41.44 146.46,43.9Z" style="fill:rgb(34,5,61);fill-rule:nonzero;"/>
        </g>
        <g transform="matrix(0.427844,0,0,0.412469,-1.91714,0.14947)">
            <path d="M167.54,39.97L166.05,39.97C164.21,39.97 163.01,41.03 163.01,43.96L163.01,50.38L160.17,50.38L160.17,37.45L162.95,37.45L162.95,39.52C163.44,38.09 164.73,37.23 166.53,37.23C166.85,37.23 167.19,37.26 167.53,37.32L167.53,39.97L167.54,39.97Z" style="fill:rgb(34,5,61);fill-rule:nonzero;"/>
        </g>
        <g transform="matrix(0.427844,0,0,0.412469,-1.91714,0.14947)">
            <path d="M173.33,50.38L170.46,50.38L170.46,39.8L168.51,39.8L168.51,37.45L173.33,37.45L173.33,50.38ZM171.72,30.77C172.84,30.77 173.76,31.69 173.76,32.81C173.76,33.93 172.84,34.82 171.72,34.82C170.6,34.82 169.71,33.93 169.71,32.81C169.71,31.69 170.6,30.77 171.72,30.77Z" style="fill:rgb(34,5,61);fill-rule:nonzero;"/>
        </g>
        <g transform="matrix(0.427844,0,0,0.412469,-1.91714,0.14947)">
            <path d="M180.58,32.23L180.58,37.45L183.62,37.45L183.62,39.8L180.58,39.8L180.58,47.05C180.58,47.94 181.24,48.11 181.9,48.11C182.9,48.11 183.65,47.99 183.65,47.99L183.65,50.37C183.65,50.37 182.24,50.51 181.18,50.51C179.63,50.51 177.71,50.19 177.71,47.67L177.71,39.8L175.59,39.8L175.59,37.45L177.71,37.45L177.71,32.23L180.58,32.23Z" style="fill:rgb(34,5,61);fill-rule:nonzero;"/>
        </g>
        <g transform="matrix(0.427844,0,0,0.412469,-1.91714,0.14947)">
            <path d="M193.6,41.7C193.6,40.32 192.57,39.61 190.9,39.61C189.49,39.61 188.23,40.21 187.26,40.99L185.91,38.87C187,37.92 188.83,37.12 191.1,37.12C194.51,37.12 196.46,39.01 196.46,41.77L196.46,50.4L193.59,50.4L193.59,49.05C192.84,50.25 191.24,50.74 189.89,50.74C186.94,50.74 185.22,49.05 185.22,46.67C185.22,44.15 187,42.71 189.89,42.71L192.67,42.71C193.33,42.71 193.59,42.42 193.59,41.91L193.59,41.7L193.6,41.7ZM193.6,45.65L193.6,44.53C193.34,44.73 192.88,44.82 192.22,44.82L190.5,44.82C188.98,44.82 188.21,45.48 188.21,46.57C188.21,47.57 188.96,48.49 190.5,48.49C192.11,48.49 193.6,47.66 193.6,45.65ZM190.3,30.31L193.86,30.31L191.39,35.16L188.64,35.16L190.3,30.31Z" style="fill:rgb(34,5,61);fill-rule:nonzero;"/>
        </g>
        <g transform="matrix(0.427844,0,0,0.412469,-1.91714,0.14947)">
            <path d="M202.72,38.2C202.72,38.57 202.72,38.8 202.69,39.06C203.78,37.8 205.27,37.11 206.91,37.11C209.95,37.11 211.73,39 211.73,41.96L211.73,50.39L208.86,50.39L208.86,42.36C208.86,40.52 207.74,39.66 206.31,39.66C205.08,39.66 203.87,40.29 202.78,41.55L202.78,50.38L199.94,50.38L199.94,37.45L202.72,37.45L202.72,38.2Z" style="fill:rgb(34,5,61);fill-rule:nonzero;"/>
        </g>
        <g transform="matrix(0.427844,0,0,0.412469,-1.91714,0.14947)">
            <path d="M218.63,50.38L215.76,50.38L215.76,39.8L213.81,39.8L213.81,37.45L218.63,37.45L218.63,50.38ZM217.02,30.77C218.14,30.77 219.06,31.69 219.06,32.81C219.06,33.93 218.14,34.82 217.02,34.82C215.9,34.82 215.01,33.93 215.01,32.81C215.02,31.69 215.9,30.77 217.02,30.77Z" style="fill:rgb(34,5,61);fill-rule:nonzero;"/>
        </g>
        <g transform="matrix(0.427844,0,0,0.412469,-1.91714,0.14947)">
            <path d="M228.21,48.23C229.7,48.23 230.85,47.51 231.51,46.34L233.98,47.6C232.95,49.52 230.68,50.73 228.22,50.73C224.38,50.73 221.37,47.89 221.37,43.93C221.37,39.94 224.38,37.1 228.22,37.1C230.69,37.1 232.95,38.3 233.98,40.23L231.51,41.49C230.85,40.31 229.7,39.6 228.21,39.6C225.86,39.6 224.25,41.46 224.25,43.93C224.25,46.4 225.85,48.23 228.21,48.23Z" style="fill:rgb(34,5,61);fill-rule:nonzero;"/>
        </g>
        <g transform="matrix(0.427844,0,0,0.412469,-1.91714,0.14947)">
            <path d="M243.86,41.7C243.86,40.32 242.83,39.61 241.16,39.61C239.76,39.61 238.49,40.21 237.52,40.99L236.17,38.87C237.26,37.92 239.09,37.12 241.36,37.12C244.77,37.12 246.72,39.01 246.72,41.77L246.72,50.4L243.85,50.4L243.85,49.05C243.1,50.25 241.5,50.74 240.15,50.74C237.2,50.74 235.48,49.05 235.48,46.67C235.48,44.15 237.26,42.71 240.15,42.71L242.93,42.71C243.59,42.71 243.85,42.42 243.85,41.91L243.85,41.7L243.86,41.7ZM243.86,45.65L243.86,44.53C243.6,44.73 243.14,44.82 242.48,44.82L240.76,44.82C239.24,44.82 238.47,45.48 238.47,46.57C238.47,47.57 239.22,48.49 240.76,48.49C242.37,48.49 243.86,47.66 243.86,45.65Z" style="fill:rgb(34,5,61);fill-rule:nonzero;"/>
        </g>
        <g transform="matrix(0.427844,0,0,0.412469,-1.91714,0.14947)">
            <path d="M266.34,48.49C265.65,49.78 263.9,50.73 262.01,50.73C258.25,50.73 255.5,47.86 255.5,43.91C255.5,39.95 258.2,37.11 261.95,37.11C263.87,37.11 265.65,38.09 266.37,39.38C266.34,38.49 266.34,37.43 266.34,36.43L266.34,30.32L269.21,30.32L269.21,50.39L266.34,50.39L266.34,48.49ZM258.43,43.9C258.43,46.37 260.06,48.26 262.44,48.26C264.79,48.26 266.45,46.37 266.45,43.9C266.45,41.43 264.79,39.57 262.44,39.57C260.06,39.57 258.43,41.44 258.43,43.9Z" style="fill:rgb(34,5,61);fill-rule:nonzero;"/>
        </g>
        <g transform="matrix(0.427844,0,0,0.412469,-1.91714,0.14947)">
            <path d="M285.18,44.79L275,44.79C275.23,46.77 276.61,48.23 278.64,48.23C279.87,48.23 281.02,47.74 281.68,46.74L284.92,46.83C283.77,49.38 281.39,50.73 278.64,50.73C274.8,50.73 271.96,47.86 271.96,43.91C271.96,39.95 274.74,37.11 278.56,37.11C282.03,37.11 285.18,39.43 285.18,44.77L285.18,44.79ZM275,42.7L281.97,42.7C281.83,41.04 280.48,39.6 278.59,39.6C276.66,39.6 275.34,40.86 275,42.7Z" style="fill:rgb(34,5,61);fill-rule:nonzero;"/>
        </g>
        <g transform="matrix(0.427844,0,0,0.412469,-1.91714,0.14947)">
            <path d="M151.05,72.01C151.05,70.63 150.02,69.92 148.35,69.92C146.94,69.92 145.68,70.52 144.71,71.3L143.36,69.18C144.45,68.23 146.28,67.43 148.55,67.43C151.96,67.43 153.91,69.32 153.91,72.08L153.91,80.71L151.04,80.71L151.04,79.36C150.29,80.56 148.69,81.05 147.34,81.05C144.39,81.05 142.67,79.36 142.67,76.98C142.67,74.46 144.45,73.02 147.34,73.02L150.12,73.02C150.78,73.02 151.04,72.73 151.04,72.22L151.04,72.01L151.05,72.01ZM151.05,75.96L151.05,74.84C150.79,75.04 150.33,75.13 149.67,75.13L147.95,75.13C146.43,75.13 145.66,75.79 145.66,76.88C145.66,77.88 146.41,78.8 147.95,78.8C149.56,78.8 151.05,77.97 151.05,75.96Z" style="fill:rgb(34,5,61);fill-rule:nonzero;"/>
        </g>
        <g transform="matrix(0.427844,0,0,0.412469,-1.91714,0.14947)">
            <path d="M164.75,70.29L163.26,70.29C161.42,70.29 160.22,71.35 160.22,74.28L160.22,80.7L157.38,80.7L157.38,67.76L160.16,67.76L160.16,69.83C160.65,68.4 161.94,67.54 163.74,67.54C164.06,67.54 164.4,67.57 164.74,67.63L164.74,70.29L164.75,70.29Z" style="fill:rgb(34,5,61);fill-rule:nonzero;"/>
        </g>
        <g transform="matrix(0.427844,0,0,0.412469,-1.91714,0.14947)">
            <path d="M170.75,62.53L170.75,67.76L173.79,67.76L173.79,70.11L170.75,70.11L170.75,77.36C170.75,78.25 171.41,78.42 172.07,78.42C173.07,78.42 173.82,78.3 173.82,78.3L173.82,80.68C173.82,80.68 172.41,80.82 171.35,80.82C169.8,80.82 167.88,80.5 167.88,77.98L167.88,70.1L165.76,70.1L165.76,67.75L167.88,67.75L167.88,62.53L170.75,62.53Z" style="fill:rgb(34,5,61);fill-rule:nonzero;"/>
        </g>
        <g transform="matrix(0.427844,0,0,0.412469,-1.91714,0.14947)">
            <path d="M188.78,75.1L178.6,75.1C178.83,77.08 180.21,78.54 182.24,78.54C183.47,78.54 184.62,78.05 185.28,77.05L188.52,77.14C187.37,79.69 184.99,81.04 182.24,81.04C178.4,81.04 175.56,78.17 175.56,74.22C175.56,70.26 178.34,67.42 182.16,67.42C185.63,67.42 188.78,69.74 188.78,75.08L188.78,75.1ZM178.6,73.01L185.57,73.01C185.43,71.35 184.08,69.91 182.19,69.91C180.27,69.91 178.95,71.18 178.6,73.01Z" style="fill:rgb(34,5,61);fill-rule:nonzero;"/>
        </g>
        <g transform="matrix(0.427844,0,0,0.412469,-1.91714,0.14947)">
            <path d="M198.73,71.26C197.75,70.31 196.32,69.86 195.35,69.86C194.23,69.86 193.66,70.46 193.66,71.06C193.66,71.78 193.98,72.12 194.86,72.44L197.1,73.21C199.51,74.04 200.51,75.36 200.51,76.97C200.51,79.04 198.93,81.04 195.69,81.04C193.57,81.04 191.47,80.18 190.24,79L191.93,76.79C192.91,77.76 194.42,78.48 195.63,78.48C196.78,78.48 197.52,77.99 197.52,77.22C197.52,76.39 197.12,76.05 195.68,75.56L193.53,74.81C191.72,74.18 190.72,72.83 190.72,71.23C190.72,69.34 192.35,67.42 195.45,67.42C196.97,67.42 199.01,68.02 200.35,69.28L198.73,71.26Z" style="fill:rgb(34,5,61);fill-rule:nonzero;"/>
        </g>
        <g transform="matrix(0.427844,0,0,0.412469,-1.91714,0.14947)">
            <path d="M214.21,78.54C215.7,78.54 216.85,77.82 217.51,76.65L219.98,77.91C218.95,79.83 216.68,81.04 214.22,81.04C210.38,81.04 207.37,78.2 207.37,74.24C207.37,70.25 210.38,67.41 214.22,67.41C216.69,67.41 218.95,68.61 219.98,70.54L217.51,71.8C216.85,70.62 215.7,69.91 214.21,69.91C211.86,69.91 210.25,71.77 210.25,74.24C210.26,76.71 211.86,78.54 214.21,78.54Z" style="fill:rgb(34,5,61);fill-rule:nonzero;"/>
        </g>
        <g transform="matrix(0.427844,0,0,0.412469,-1.91714,0.14947)">
            <path d="M229.9,70.29L228.41,70.29C226.57,70.29 225.37,71.35 225.37,74.28L225.37,80.7L222.53,80.7L222.53,67.76L225.31,67.76L225.31,69.83C225.8,68.4 227.09,67.54 228.89,67.54C229.21,67.54 229.55,67.57 229.89,67.63L229.89,70.29L229.9,70.29Z" style="fill:rgb(34,5,61);fill-rule:nonzero;"/>
        </g>
        <g transform="matrix(0.427844,0,0,0.412469,-1.91714,0.14947)">
            <path d="M244.32,75.1L234.14,75.1C234.37,77.08 235.75,78.54 237.78,78.54C239.01,78.54 240.16,78.05 240.82,77.05L244.06,77.14C242.91,79.69 240.53,81.04 237.78,81.04C233.94,81.04 231.1,78.17 231.1,74.22C231.1,70.26 233.88,67.42 237.7,67.42C241.17,67.42 244.32,69.74 244.32,75.08L244.32,75.1ZM234.14,73.01L241.11,73.01C240.97,71.35 239.62,69.91 237.73,69.91C235.8,69.91 234.49,71.18 234.14,73.01Z" style="fill:rgb(34,5,61);fill-rule:nonzero;"/>
        </g>
        <g transform="matrix(0.427844,0,0,0.412469,-1.91714,0.14947)">
            <path d="M254.24,72.01C254.24,70.63 253.21,69.92 251.54,69.92C250.14,69.92 248.87,70.52 247.9,71.3L246.55,69.18C247.64,68.23 249.47,67.43 251.74,67.43C255.15,67.43 257.1,69.32 257.1,72.08L257.1,80.71L254.23,80.71L254.23,79.36C253.48,80.56 251.88,81.05 250.53,81.05C247.58,81.05 245.86,79.36 245.86,76.98C245.86,74.46 247.64,73.02 250.53,73.02L253.31,73.02C253.97,73.02 254.23,72.73 254.23,72.22L254.23,72.01L254.24,72.01ZM254.24,75.96L254.24,74.84C253.98,75.04 253.52,75.13 252.86,75.13L251.14,75.13C249.62,75.13 248.85,75.79 248.85,76.88C248.85,77.88 249.6,78.8 251.14,78.8C252.75,78.8 254.24,77.97 254.24,75.96Z" style="fill:rgb(34,5,61);fill-rule:nonzero;"/>
        </g>
        <g transform="matrix(0.427844,0,0,0.412469,-1.91714,0.14947)">
            <path d="M264.22,62.53L264.22,67.76L267.26,67.76L267.26,70.11L264.22,70.11L264.22,77.36C264.22,78.25 264.88,78.42 265.54,78.42C266.54,78.42 267.29,78.3 267.29,78.3L267.29,80.68C267.29,80.68 265.88,80.82 264.82,80.82C263.27,80.82 261.35,80.5 261.35,77.98L261.35,70.1L259.23,70.1L259.23,67.75L261.35,67.75L261.35,62.53L264.22,62.53Z" style="fill:rgb(34,5,61);fill-rule:nonzero;"/>
        </g>
        <g transform="matrix(0.427844,0,0,0.412469,-1.91714,0.14947)">
            <path d="M273.34,80.7L270.47,80.7L270.47,70.11L268.52,70.11L268.52,67.76L273.34,67.76L273.34,80.7ZM271.73,61.08C272.85,61.08 273.77,62 273.77,63.12C273.77,64.24 272.85,65.13 271.73,65.13C270.61,65.13 269.72,64.24 269.72,63.12C269.72,62 270.61,61.08 271.73,61.08Z" style="fill:rgb(34,5,61);fill-rule:nonzero;"/>
        </g>
        <g transform="matrix(0.427844,0,0,0.412469,-1.91714,0.14947)">
            <path d="M282.14,77.97L285.61,67.76L288.65,67.76L283.89,80.69L280.28,80.69L275.69,67.76L278.87,67.76L282.14,77.97Z" style="fill:rgb(34,5,61);fill-rule:nonzero;"/>
        </g>
        <g transform="matrix(0.427844,0,0,0.412469,-1.91714,0.14947)">
            <path d="M297.94,72.01C297.94,70.63 296.91,69.92 295.24,69.92C293.83,69.92 292.57,70.52 291.6,71.3L290.25,69.18C291.34,68.23 293.17,67.43 295.44,67.43C298.85,67.43 300.8,69.32 300.8,72.08L300.8,80.71L297.93,80.71L297.93,79.36C297.18,80.56 295.58,81.05 294.23,81.05C291.28,81.05 289.56,79.36 289.56,76.98C289.56,74.46 291.34,73.02 294.23,73.02L297.01,73.02C297.67,73.02 297.93,72.73 297.93,72.22L297.93,72.01L297.94,72.01ZM297.94,75.96L297.94,74.84C297.68,75.04 297.22,75.13 296.56,75.13L294.84,75.13C293.32,75.13 292.55,75.79 292.55,76.88C292.55,77.88 293.3,78.8 294.84,78.8C296.45,78.8 297.94,77.97 297.94,75.96Z" style="fill:rgb(34,5,61);fill-rule:nonzero;"/>
        </g>
        <g transform="matrix(0.427844,0,0,0.412469,-1.91714,0.14947)">
            <path d="M311.64,71.26C310.66,70.31 309.23,69.86 308.26,69.86C307.14,69.86 306.57,70.46 306.57,71.06C306.57,71.78 306.89,72.12 307.77,72.44L310.01,73.21C312.42,74.04 313.42,75.36 313.42,76.97C313.42,79.04 311.84,81.04 308.6,81.04C306.48,81.04 304.38,80.18 303.15,79L304.84,76.79C305.82,77.76 307.33,78.48 308.54,78.48C309.69,78.48 310.43,77.99 310.43,77.22C310.43,76.39 310.03,76.05 308.59,75.56L306.44,74.81C304.63,74.18 303.63,72.83 303.63,71.23C303.63,69.34 305.26,67.42 308.36,67.42C309.88,67.42 311.92,68.02 313.26,69.28L311.64,71.26Z" style="fill:rgb(34,5,61);fill-rule:nonzero;"/>
        </g>
        <g transform="matrix(0.427844,0,0,0.412469,-1.91714,0.14947)">
            <path d="M147.61,111.01L147.04,111.01L142.42,98.08L145.63,98.08L148.87,108.26L152.25,98.08L155.32,98.08L149.84,113.11C149.15,114.97 148.06,116.01 145.77,116.01L143.76,116.01L143.76,113.66L145.34,113.66C146.37,113.66 146.86,113.32 147.23,112.2L147.61,111.01Z" style="fill:rgb(34,5,61);fill-rule:nonzero;"/>
        </g>
        <g transform="matrix(0.427844,0,0,0.412469,-1.91714,0.14947)">
            <path d="M166.7,92.85L166.7,98.08L169.74,98.08L169.74,100.43L166.7,100.43L166.7,107.68C166.7,108.57 167.36,108.74 168.02,108.74C169.02,108.74 169.77,108.62 169.77,108.62L169.77,111C169.77,111 168.36,111.14 167.3,111.14C165.75,111.14 163.83,110.82 163.83,108.3L163.83,100.42L161.71,100.42L161.71,98.07L163.83,98.07L163.83,92.85L166.7,92.85Z" style="fill:rgb(34,5,61);fill-rule:nonzero;"/>
        </g>
        <g transform="matrix(0.427844,0,0,0.412469,-1.91714,0.14947)">
            <path d="M184.74,105.41L174.56,105.41C174.79,107.39 176.17,108.85 178.2,108.85C179.43,108.85 180.58,108.36 181.24,107.36L184.48,107.45C183.33,110 180.95,111.35 178.2,111.35C174.36,111.35 171.52,108.48 171.52,104.53C171.52,100.57 174.3,97.73 178.12,97.73C181.59,97.73 184.74,100.05 184.74,105.39L184.74,105.41ZM174.56,103.32L181.53,103.32C181.39,101.66 180.04,100.22 178.15,100.22C176.22,100.22 174.9,101.49 174.56,103.32Z" style="fill:rgb(34,5,61);fill-rule:nonzero;"/>
        </g>
        <g transform="matrix(0.427844,0,0,0.412469,-1.91714,0.14947)">
            <path d="M193.28,108.86C194.77,108.86 195.92,108.14 196.58,106.97L199.05,108.23C198.02,110.15 195.75,111.36 193.29,111.36C189.45,111.36 186.44,108.52 186.44,104.56C186.44,100.57 189.45,97.73 193.29,97.73C195.76,97.73 198.02,98.93 199.05,100.86L196.58,102.12C195.92,100.94 194.77,100.23 193.28,100.23C190.93,100.23 189.32,102.09 189.32,104.56C189.33,107.02 190.93,108.86 193.28,108.86Z" style="fill:rgb(34,5,61);fill-rule:nonzero;"/>
        </g>
        <g transform="matrix(0.427844,0,0,0.412469,-1.91714,0.14947)">
            <path d="M204.38,98.82C204.38,99.19 204.38,99.42 204.35,99.68C205.44,98.42 206.93,97.73 208.57,97.73C211.61,97.73 213.39,99.62 213.39,102.58L213.39,111.01L210.52,111.01L210.52,102.98C210.52,101.14 209.4,100.28 207.97,100.28C206.74,100.28 205.53,100.91 204.44,102.17L204.44,111L201.6,111L201.6,98.07L204.38,98.07L204.38,98.82Z" style="fill:rgb(34,5,61);fill-rule:nonzero;"/>
        </g>
        <g transform="matrix(0.427844,0,0,0.412469,-1.91714,0.14947)">
            <path d="M222.85,97.73C226.66,97.73 229.76,100.57 229.76,104.53C229.76,108.49 226.66,111.35 222.85,111.35C219.04,111.35 215.97,108.48 215.97,104.53C215.96,100.57 219.03,97.73 222.85,97.73ZM222.85,100.22C220.5,100.22 218.86,102.06 218.86,104.52C218.86,106.99 220.49,108.85 222.85,108.85C225.2,108.85 226.84,106.99 226.84,104.52C226.83,102.06 225.2,100.22 222.85,100.22Z" style="fill:rgb(34,5,61);fill-rule:nonzero;"/>
        </g>
        <g transform="matrix(0.427844,0,0,0.412469,-1.91714,0.14947)">
            <rect x="232.56" y="90.93" width="2.84" height="20.08" style="fill:rgb(34,5,61);fill-rule:nonzero;"/>
        </g>
        <g transform="matrix(0.427844,0,0,0.412469,-1.91714,0.14947)">
            <path d="M245.1,97.73C248.91,97.73 252.01,100.57 252.01,104.53C252.01,108.49 248.91,111.35 245.1,111.35C241.29,111.35 238.22,108.48 238.22,104.53C238.21,100.57 241.28,97.73 245.1,97.73ZM245.1,100.22C242.75,100.22 241.11,102.06 241.11,104.52C241.11,106.99 242.74,108.85 245.1,108.85C247.45,108.85 249.09,106.99 249.09,104.52C249.08,102.06 247.45,100.22 245.1,100.22Z" style="fill:rgb(34,5,61);fill-rule:nonzero;"/>
        </g>
        <g transform="matrix(0.427844,0,0,0.412469,-1.91714,0.14947)">
            <path d="M267.55,98.07L267.55,112.03C267.55,114.04 266.55,115.99 263.48,115.99L258.06,115.99L258.06,113.64L263.05,113.64C263.82,113.64 264.68,113.44 264.68,112.26L264.68,109.08C263.99,110.34 262.24,111.29 260.35,111.29C256.62,111.29 253.87,108.48 253.87,104.52C253.87,100.53 256.57,97.72 260.32,97.72C262.21,97.72 263.99,98.7 264.71,99.99C264.71,99.7 264.68,99.39 264.68,98.99L264.68,98.07L267.55,98.07ZM260.78,108.86C263.16,108.86 264.79,107 264.79,104.53C264.79,102.03 263.16,100.17 260.78,100.17C258.43,100.17 256.79,102.03 256.79,104.53C256.79,106.99 258.43,108.86 260.78,108.86Z" style="fill:rgb(34,5,61);fill-rule:nonzero;"/>
        </g>
        <g transform="matrix(0.427844,0,0,0.412469,-1.91714,0.14947)">
            <path d="M274.6,111.01L271.76,111.01L271.76,100.43L269.78,100.43L269.78,98.08L274.6,98.08L274.6,111.01ZM272.02,90.93L275.58,90.93L273.11,95.78L270.36,95.78L272.02,90.93Z" style="fill:rgb(34,5,61);fill-rule:nonzero;"/>
        </g>
        <g transform="matrix(0.427844,0,0,0.412469,-1.91714,0.14947)">
            <path d="M285.55,102.32C285.55,100.94 284.52,100.23 282.85,100.23C281.44,100.23 280.18,100.83 279.21,101.61L277.86,99.49C278.95,98.54 280.78,97.74 283.05,97.74C286.46,97.74 288.41,99.63 288.41,102.39L288.41,111.02L285.54,111.02L285.54,109.67C284.79,110.87 283.19,111.36 281.84,111.36C278.89,111.36 277.17,109.67 277.17,107.29C277.17,104.77 278.95,103.33 281.84,103.33L284.62,103.33C285.28,103.33 285.54,103.04 285.54,102.53L285.54,102.32L285.55,102.32ZM285.55,106.28L285.55,105.16C285.29,105.36 284.83,105.45 284.17,105.45L282.45,105.45C280.93,105.45 280.16,106.11 280.16,107.2C280.16,108.2 280.91,109.12 282.45,109.12C284.06,109.11 285.55,108.28 285.55,106.28Z" style="fill:rgb(34,5,61);fill-rule:nonzero;"/>
        </g>
    </g>
</svg>
